<svg xmlns="http://www.w3.org/2000/svg" fill="none" viewBox="0 0 74 64"><path fill="#E81F41" d="M73.4 44c0 4.1-1.5 8-4.1 10.8l1.4 6c.5 2.2-2 4-4 2.7l-5.8-3.7c-1.2.3-2.4.5-3.8.5H39.2A16.2 16.2 0 0 1 22.9 44h13.8c2.6 0 4.7-2.1 4.7-4.7v-4.4h4.4a4.7 4.7 0 1 0 0-9.4h-4.4V21a4.7 4.7 0 0 0-4.7-4.7h20.4c9 0 16.3 7.3 16.3 16.3V44Z"/><path fill="#1C1F62" d="M50.5 16.3H36.7A4.7 4.7 0 0 0 32 21v4.4h-4.4a4.7 4.7 0 0 0 0 9.4H32v4.5c0 2.6 2.1 4.7 4.7 4.7H16.3c-1.5 0-2.9-.2-4.2-.6l-6 2.8c-2 1.3-4.5-.5-4-2.8l1.3-5.7a16.2 16.2 0 0 1-3.4-10V16.3C0 7.3 7.3 0 16.3 0h18a16.2 16.2 0 0 1 16.2 16.3Z"/></svg>