<svg width="244" height="64" viewBox="0 0 244 64" fill="none" xmlns="http://www.w3.org/2000/svg">
<g clip-path="url(#clip0_436_15729)">
<path d="M73.4282 43.9812C73.4282 48.15 71.8598 51.9565 69.287 54.832L70.6674 60.7206C71.2131 63.0411 68.6541 64.8435 66.6545 63.541L60.931 59.8217C59.7157 60.1106 58.45 60.2665 57.1429 60.2665H39.202C34.703 60.2665 30.6305 58.4413 27.6863 55.497C24.7374 52.5481 22.9167 48.4756 22.9167 43.9812H36.7209C39.3167 43.9812 41.4125 41.8854 41.4125 39.2896V34.8732H45.829C48.4247 34.8732 50.5206 32.7773 50.5206 30.1816C50.5206 28.8883 49.9977 27.7142 49.1447 26.8612C48.2917 26.0082 47.1222 25.4854 45.8244 25.4854H41.4079V20.9772C41.4079 19.6839 40.8851 18.5099 40.0321 17.6569C39.1882 16.8084 38.0142 16.281 36.7117 16.281H50.5114L57.1337 16.2765C66.1317 16.2765 73.4236 23.5684 73.4236 32.5664V43.9766L73.4282 43.9812Z" fill="#E81F41"/>
<path d="M50.5159 16.2856H41.4079L36.7163 16.2902C34.1251 16.2902 32.0247 18.3907 32.0247 20.9818V25.3982H27.6037C26.3104 25.3982 25.1363 25.9257 24.2833 26.7741C23.4395 27.6225 22.9075 28.7966 22.9075 30.0944C22.9075 32.6902 25.0079 34.786 27.5991 34.786H32.0201V39.2942C32.0201 41.8899 34.1206 43.9858 36.7117 43.9858H16.2897C14.8359 43.9858 13.4326 43.7932 12.0934 43.4401L6.10853 46.2101C4.11357 47.5034 1.55451 45.7056 2.09567 43.3896L3.43024 37.6936C1.28393 34.9374 -0.000183136 31.4703 -0.000183105 27.7005L-0.000183012 16.2902C-0.000182939 7.28765 7.29175 0.000304999 16.2897 0.000305176L34.2306 0.00030553C38.7296 0.000305619 42.8067 1.82558 45.7464 4.76987C48.6953 7.71875 50.5159 11.7821 50.5159 16.281V16.2856Z" fill="#1C1F62"/>
<path d="M208.063 23.7381H205.843V45.3387H208.072V38.8218C208.072 38.0605 208.15 37.3634 208.315 36.7351C208.476 36.1068 208.723 35.5657 209.058 35.1071C209.393 34.6485 209.824 34.2953 210.347 34.0477C210.87 33.8 211.493 33.6762 212.218 33.6762C213.268 33.6762 214.039 34.0018 214.534 34.6485C215.029 35.2997 215.277 36.1848 215.277 37.3084V45.3433H217.506V37.0837C217.506 36.2857 217.405 35.5473 217.203 34.8686C217.001 34.1898 216.689 33.6166 216.272 33.1396C215.85 32.6627 215.323 32.2912 214.685 32.0252C214.043 31.7592 213.287 31.6262 212.411 31.6262C211.897 31.6262 211.411 31.695 210.952 31.828C210.494 31.961 210.081 32.1307 209.709 32.3416C209.338 32.5526 209.017 32.7865 208.751 33.0433C208.485 33.3001 208.274 33.5615 208.123 33.8275H208.063V23.7381Z" fill="#1C1F62"/>
<path d="M200.29 29.2827C199.68 28.4618 198.927 27.8518 198.033 27.4391C197.139 27.0309 196.203 26.8245 195.231 26.8245C194.107 26.8245 193.071 27.0538 192.131 27.5124C191.186 27.9711 190.374 28.5856 189.686 29.3561C188.998 30.1265 188.466 31.0254 188.086 32.0435C187.705 33.0617 187.513 34.1256 187.513 35.2309C187.513 36.4141 187.701 37.5148 188.086 38.5329C188.466 39.551 188.994 40.4407 189.673 41.1928C190.351 41.945 191.159 42.5412 192.103 42.9814C193.048 43.4217 194.089 43.6372 195.236 43.6372C196.474 43.6372 197.579 43.3942 198.551 42.9081C199.524 42.4219 200.372 41.7203 201.097 40.8076L202.899 42.321C201.986 43.5409 200.881 44.4352 199.597 45.0085C198.308 45.5818 196.859 45.8661 195.236 45.8661C193.786 45.8661 192.433 45.6001 191.177 45.0635C189.92 44.5315 188.829 43.7932 187.902 42.8484C186.976 41.9037 186.256 40.7847 185.729 39.4868C185.206 38.1935 184.944 36.7718 184.944 35.2263C184.944 33.6808 185.197 32.3508 185.701 31.0529C186.206 29.7596 186.916 28.6315 187.829 27.6821C188.742 26.7328 189.829 25.9761 191.09 25.4258C192.346 24.8708 193.727 24.5957 195.236 24.5957C196.607 24.5957 197.928 24.8433 199.193 25.3386C200.459 25.8339 201.523 26.6457 202.381 27.7693L200.294 29.2827H200.29Z" fill="#1C1F62"/>
<path fill-rule="evenodd" clip-rule="evenodd" d="M96.5193 25.1093H88.7413V45.3525H96.5193C97.1843 45.3525 97.8906 45.2745 98.6335 45.1232C99.3765 44.9718 100.115 44.7287 100.849 44.394C101.582 44.0592 102.284 43.6235 102.963 43.0915C103.642 42.5549 104.238 41.9129 104.751 41.1607C105.265 40.4086 105.673 39.5418 105.981 38.5604C106.288 37.579 106.439 36.4691 106.439 35.2309C106.439 33.9926 106.283 32.8828 105.981 31.9014C105.673 30.9199 105.265 30.0532 104.751 29.301C104.233 28.5489 103.642 27.9023 102.963 27.3703C102.289 26.8337 101.582 26.4026 100.849 26.0678C100.115 25.733 99.3765 25.49 98.6335 25.3386C97.8906 25.1873 97.1843 25.1093 96.5193 25.1093ZM95.7168 43.119H91.1444V27.3382H95.7168C96.8816 27.3382 97.9594 27.4941 98.95 27.7968C99.9406 28.1041 100.798 28.5764 101.523 29.2139C102.247 29.8514 102.816 30.6677 103.238 31.6583C103.655 32.6489 103.866 33.8413 103.866 35.2309C103.866 36.6205 103.655 37.8129 103.238 38.8035C102.816 39.7941 102.247 40.6104 101.523 41.2479C100.798 41.8853 99.9406 42.3577 98.95 42.6604C97.9548 42.9677 96.8771 43.119 95.7168 43.119Z" fill="#1C1F62"/>
<path fill-rule="evenodd" clip-rule="evenodd" d="M109.672 35.8042C109.305 36.6618 109.127 37.6111 109.127 38.6613C109.127 39.707 109.31 40.6609 109.672 41.5185C110.035 42.3761 110.53 43.1144 111.158 43.7336C111.787 44.3527 112.539 44.8342 113.415 45.1782C114.291 45.5176 115.244 45.6918 116.272 45.6918C117.299 45.6918 118.253 45.5222 119.129 45.1782C120.005 44.8342 120.757 44.3527 121.385 43.7336C122.014 43.1144 122.509 42.3761 122.871 41.5185C123.234 40.6609 123.417 39.707 123.417 38.6613C123.417 37.6157 123.234 36.6618 122.871 35.8042C122.509 34.9466 122.014 34.2082 121.385 33.5891C120.757 32.9699 120.005 32.4884 119.129 32.1444C118.253 31.8051 117.299 31.6308 116.272 31.6308C115.244 31.6308 114.291 31.8005 113.415 32.1444C112.539 32.4884 111.787 32.9699 111.158 33.5891C110.53 34.2082 110.035 34.9466 109.672 35.8042ZM111.86 40.6196C111.64 40.0188 111.53 39.3676 111.53 38.6613C111.53 37.9551 111.64 37.3038 111.86 36.703C112.08 36.1023 112.396 35.5794 112.818 35.13C113.236 34.6806 113.736 34.3274 114.318 34.0706C114.901 33.8138 115.552 33.6854 116.276 33.6854C117.001 33.6854 117.652 33.8138 118.235 34.0706C118.817 34.3274 119.312 34.6806 119.734 35.13C120.156 35.5794 120.473 36.1023 120.693 36.703C120.913 37.3038 121.023 37.9551 121.023 38.6613C121.023 39.3676 120.913 40.0188 120.693 40.6196C120.473 41.2204 120.152 41.7432 119.734 42.1926C119.317 42.6421 118.817 42.9952 118.235 43.252C117.652 43.5089 117.001 43.6373 116.276 43.6373C115.552 43.6373 114.901 43.5089 114.318 43.252C113.736 42.9952 113.236 42.6421 112.818 42.1926C112.396 41.7432 112.08 41.2204 111.86 40.6196Z" fill="#1C1F62"/>
<path d="M136.396 35.3135C135.919 34.7402 135.405 34.3274 134.85 34.0706C134.295 33.8138 133.685 33.6854 133.02 33.6854C132.277 33.6854 131.621 33.8138 131.048 34.0706C130.475 34.3274 130.007 34.6852 129.636 35.1438C129.264 35.6024 128.984 36.1298 128.792 36.7306C128.599 37.3313 128.507 37.9734 128.507 38.6613C128.507 39.3492 128.618 39.9913 128.838 40.5921C129.058 41.1929 129.361 41.7203 129.75 42.1789C130.14 42.6375 130.613 42.9952 131.167 43.252C131.722 43.5089 132.341 43.6373 133.025 43.6373C134.492 43.6373 135.625 43.0823 136.428 41.9771L138.088 43.5501C137.441 44.2931 136.675 44.8342 135.799 45.1782C134.923 45.5222 133.997 45.6918 133.029 45.6918C132.002 45.6918 131.057 45.5176 130.2 45.1782C129.342 44.8342 128.613 44.3481 128.012 43.7198C127.411 43.0915 126.944 42.3486 126.613 41.491C126.279 40.6334 126.114 39.6886 126.114 38.6613C126.114 37.634 126.279 36.7168 126.613 35.8592C126.948 35.0016 127.421 34.2586 128.031 33.6303C128.64 33.002 129.37 32.5113 130.218 32.1582C131.067 31.8051 132.007 31.6308 133.034 31.6308C134.061 31.6308 134.965 31.8051 135.85 32.1444C136.735 32.4884 137.515 33.0204 138.18 33.745L136.409 35.318L136.396 35.3135Z" fill="#1C1F62"/>
<path d="M144.032 33.8596H147.976V31.9747H144.032V28.1729H141.803V31.9747H138.886V33.8642H141.803V41.2112C141.803 41.8945 141.849 42.5228 141.931 43.0823C142.014 43.6418 142.193 44.1142 142.459 44.4949C142.725 44.8755 143.096 45.169 143.573 45.38C144.05 45.5909 144.687 45.6964 145.49 45.6964C145.912 45.6964 146.352 45.6551 146.82 45.5818C147.283 45.5084 147.71 45.3846 148.09 45.2103L148.003 43.1786C147.696 43.33 147.375 43.4446 147.031 43.5226C146.687 43.6006 146.357 43.6373 146.031 43.6373C145.536 43.6373 145.155 43.5547 144.889 43.3942C144.623 43.2337 144.421 43.0135 144.288 42.7384C144.155 42.4632 144.077 42.1376 144.059 41.7661C144.041 41.3946 144.032 40.9911 144.032 40.5508V33.8596Z" fill="#1C1F62"/>
<path fill-rule="evenodd" clip-rule="evenodd" d="M149.948 38.6613C149.948 37.6111 150.126 36.6618 150.493 35.8042C150.856 34.9466 151.351 34.2082 151.979 33.5891C152.608 32.9699 153.36 32.4884 154.236 32.1444C155.112 31.8005 156.066 31.6308 157.093 31.6308C158.12 31.6308 159.074 31.8051 159.95 32.1444C160.826 32.4884 161.578 32.9699 162.206 33.5891C162.835 34.2082 163.33 34.9466 163.692 35.8042C164.055 36.6618 164.238 37.6157 164.238 38.6613C164.238 39.707 164.055 40.6609 163.692 41.5185C163.33 42.3761 162.835 43.1144 162.206 43.7336C161.578 44.3527 160.826 44.8342 159.95 45.1782C159.074 45.5222 158.12 45.6918 157.093 45.6918C156.066 45.6918 155.112 45.5176 154.236 45.1782C153.36 44.8342 152.608 44.3527 151.979 43.7336C151.351 43.1144 150.856 42.3761 150.493 41.5185C150.131 40.6609 149.948 39.707 149.948 38.6613ZM152.351 38.6613C152.351 39.3676 152.461 40.0188 152.681 40.6196C152.901 41.2204 153.218 41.7432 153.639 42.1926C154.057 42.6421 154.557 42.9952 155.139 43.252C155.722 43.5089 156.373 43.6373 157.097 43.6373C157.822 43.6373 158.473 43.5089 159.056 43.252C159.638 42.9952 160.138 42.6421 160.555 42.1926C160.973 41.7432 161.294 41.2204 161.514 40.6196C161.734 40.0188 161.844 39.3676 161.844 38.6613C161.844 37.9551 161.734 37.3038 161.514 36.703C161.294 36.1023 160.977 35.5794 160.555 35.13C160.133 34.6806 159.638 34.3274 159.056 34.0706C158.473 33.8138 157.822 33.6854 157.097 33.6854C156.373 33.6854 155.722 33.8138 155.139 34.0706C154.557 34.3274 154.057 34.6806 153.639 35.13C153.218 35.5794 152.901 36.1023 152.681 36.703C152.461 37.3038 152.351 37.9551 152.351 38.6613Z" fill="#1C1F62"/>
<path d="M167.645 33.4285C167.682 33.9605 167.7 34.5338 167.7 35.1438V45.3433H169.929V38.8264C169.929 37.2809 170.241 36.0656 170.86 35.1804C171.479 34.2953 172.475 33.8505 173.846 33.8505C174.268 33.8505 174.667 33.9055 175.047 34.0202L175.19 31.7638C175.038 31.7088 174.882 31.6675 174.731 31.6491C174.575 31.6308 174.424 31.6216 174.272 31.6216C173.717 31.6216 173.204 31.695 172.727 31.8372C172.254 31.9793 171.823 32.1719 171.443 32.4104C171.062 32.6489 170.732 32.9195 170.457 33.2268C170.182 33.534 169.966 33.8459 169.815 34.1715H169.755C169.755 33.7909 169.746 33.4194 169.728 33.0571C169.709 32.6948 169.7 32.3325 169.7 31.9702H167.586C167.586 32.4104 167.609 32.8966 167.645 33.4285Z" fill="#1C1F62"/>
<path fill-rule="evenodd" clip-rule="evenodd" d="M221.555 33.6854C222.243 32.9791 223.055 32.4609 224 32.1261C224.944 31.7913 225.898 31.6262 226.871 31.6262C228.852 31.6262 230.283 32.094 231.159 33.0295C232.035 33.9651 232.475 35.3822 232.475 37.29V43.0365C232.475 43.4171 232.493 43.8115 232.53 44.2243C232.567 44.6324 232.617 45.0085 232.672 45.3525H230.526C230.448 45.0498 230.407 44.7104 230.397 44.3389C230.388 43.9674 230.384 43.6372 230.384 43.3529H230.329C229.888 44.0408 229.306 44.6003 228.572 45.0406C227.838 45.4809 226.958 45.6964 225.926 45.6964C225.238 45.6964 224.596 45.6093 223.995 45.4396C223.394 45.2699 222.872 45.0177 222.422 44.6829C221.973 44.3481 221.615 43.9353 221.349 43.44C221.083 42.9447 220.95 42.3715 220.95 41.7248C220.95 40.6196 221.234 39.7528 221.808 39.1245C222.381 38.4962 223.092 38.0284 223.936 37.7257C224.779 37.423 225.697 37.2304 226.678 37.1525C227.659 37.0791 228.558 37.0378 229.379 37.0378H230.237V36.6388C230.237 35.6666 229.943 34.9328 229.365 34.4375C228.783 33.9422 227.967 33.6945 226.921 33.6945C226.196 33.6945 225.486 33.8138 224.793 34.0522C224.096 34.2907 223.481 34.6576 222.95 35.1529L221.551 33.6945L221.555 33.6854ZM228.017 38.9181C226.586 38.9181 225.454 39.1199 224.614 39.5189C223.775 39.9179 223.358 40.5783 223.358 41.4909C223.358 42.3302 223.637 42.9264 224.202 43.2795C224.761 43.6327 225.463 43.8069 226.302 43.8069C226.949 43.8069 227.517 43.6969 228.003 43.4767C228.49 43.2566 228.893 42.9677 229.219 42.6054C229.544 42.2431 229.792 41.8211 229.962 41.335C230.131 40.8489 230.228 40.3307 230.246 39.7757V38.9181H228.017Z" fill="#1C1F62"/>
<path d="M239.941 33.8596H243.885V31.9747H239.941V28.1729H237.712V31.9747H234.795V33.8642H237.712V41.2112C237.712 41.8945 237.754 42.5182 237.841 43.0823C237.923 43.6418 238.102 44.1142 238.368 44.4949C238.634 44.8755 239.006 45.169 239.482 45.38C239.959 45.5909 240.597 45.6964 241.399 45.6964C241.821 45.6964 242.262 45.6551 242.729 45.5818C243.193 45.5084 243.619 45.3846 244 45.2103L243.913 43.1786C243.605 43.33 243.284 43.4446 242.94 43.5226C242.596 43.6006 242.266 43.6373 241.941 43.6373C241.445 43.6373 241.065 43.5547 240.799 43.3942C240.533 43.2337 240.331 43.0135 240.198 42.7384C240.065 42.4632 239.987 42.1376 239.969 41.7661C239.95 41.3946 239.941 40.9911 239.941 40.5508V33.8596Z" fill="#1C1F62"/>
</g>
<defs>
<clipPath id="clip0_436_15729">
<rect width="244" height="64" fill="white"/>
</clipPath>
</defs>
</svg>
