<svg width="150" height="150" viewBox="0 0 150 150" fill="none" xmlns="http://www.w3.org/2000/svg">
<path d="M150 99.8446C150 108.361 146.796 116.137 141.54 122.011L144.36 134.04C145.475 138.78 140.247 142.462 136.163 139.802L124.471 132.204C121.988 132.794 119.402 133.112 116.732 133.112H80.0824C70.8918 133.112 62.5725 129.384 56.558 123.369C50.534 117.345 46.8146 109.026 46.8146 99.8446H75.014C80.3167 99.8446 84.598 95.5632 84.598 90.2605V81.2387H93.6201C98.9226 81.2387 103.204 76.9571 103.204 71.6546C103.204 69.0126 102.136 66.6142 100.393 64.8717C98.6509 63.1292 96.2619 62.0612 93.6107 62.0612H84.5886V52.8518C84.5886 50.2098 83.5207 47.8116 81.7781 46.069C80.0542 44.3357 77.6559 43.2583 74.9952 43.2583H103.185L116.713 43.2491C135.095 43.2491 149.991 58.1451 149.991 76.5263V99.8352L150 99.8446Z" fill="#E81F41"/>
<path d="M103.195 43.2678H84.5886L75.0046 43.2772C69.7113 43.2772 65.4205 47.5681 65.4205 52.8612V61.8831H56.3893C53.7473 61.8831 51.3489 62.9606 49.6063 64.6938C47.8826 66.4269 46.7958 68.8253 46.7958 71.4765C46.7958 76.7792 51.0866 81.0605 56.3799 81.0605H65.4111V90.2699C65.4111 95.5725 69.7021 99.854 74.9952 99.854H33.2769C30.3071 99.854 27.4404 99.4605 24.7047 98.7392L12.4788 104.398C8.40343 107.04 3.17576 103.367 4.28125 98.6361L7.00752 87.0002C2.62302 81.3698 -0.000183169 74.2872 -0.000183105 66.5862L-0.000182915 43.2772C-0.000182766 24.8867 14.8958 10 33.2769 10L69.9268 10C79.1174 10 87.4461 13.7287 93.4514 19.7433C99.4754 25.7673 103.195 34.068 103.195 43.2584V43.2678Z" fill="white"/>
</svg>
